<?xml version="1.0" encoding="UTF-8" standalone="no"?>
<!-- Created with Inkscape (http://www.inkscape.org/) -->

<svg
   xmlns:dc="http://purl.org/dc/elements/1.1/"
   xmlns:cc="http://creativecommons.org/ns#"
   xmlns:rdf="http://www.w3.org/1999/02/22-rdf-syntax-ns#"
   xmlns:svg="http://www.w3.org/2000/svg"
   xmlns="http://www.w3.org/2000/svg"
   xmlns:sodipodi="http://sodipodi.sourceforge.net/DTD/sodipodi-0.dtd"
   xmlns:inkscape="http://www.inkscape.org/namespaces/inkscape"
   version="1.1"
   id="svg815"
   width="200"
   height="200"
   viewBox="0 0 200 200"
   sodipodi:docname="owl-logo.svg"
   inkscape:version="0.92.4 (5da689c313, 2019-01-14)">
  <metadata
     id="metadata821">
    <rdf:RDF>
      <cc:Work
         rdf:about="">
        <dc:format>image/svg+xml</dc:format>
        <dc:type
           rdf:resource="http://purl.org/dc/dcmitype/StillImage" />
        <dc:title></dc:title>
      </cc:Work>
    </rdf:RDF>
  </metadata>
  <defs
     id="defs819" />
  <sodipodi:namedview
     pagecolor="#ffffff"
     bordercolor="#666666"
     borderopacity="1"
     objecttolerance="10"
     gridtolerance="10"
     guidetolerance="10"
     inkscape:pageopacity="0"
     inkscape:pageshadow="2"
     inkscape:window-width="2094"
     inkscape:window-height="2054"
     id="namedview817"
     showgrid="false"
     inkscape:zoom="6.395"
     inkscape:cx="132.75264"
     inkscape:cy="66.846424"
     inkscape:window-x="0"
     inkscape:window-y="0"
     inkscape:window-maximized="0"
     inkscape:current-layer="svg815" />
  <path
     inkscape:connector-curvature="0"
     id="path4539"
     d="m 15.031606,170.48424 c -8.1730704,-16.7625 -9.1216604,-33.56897 -2.61708,-46.36778 4.99049,-9.81959 15.01625,-19.28834 26.30556,-24.844099 3.87745,-1.9082 5.101,-2.99988 4.62367,-4.12538 -0.357,-0.84178 -1.76267,-4.90552 -3.12372,-9.03052 -2.17424,-6.589563 -2.40637,-8.653216 -1.91224,-16.999998 0.30931,-5.225 1.49082,-12.875 2.62556,-17 2.55656,-9.293537 3.51822,-22.570121 2.20922,-30.5 -0.54474,-3.3 -0.92402,-6.072227 -0.84285,-6.160505 0.0812,-0.08828 3.17064,1.612465 6.86548,3.779428 9.36892,5.494716 24.72056,11.438753 34.73034,13.447321 13.31001,2.670795 27.674474,1.668021 41.223264,-2.877767 10.6483,-3.572642 19.78573,-7.742563 27.14228,-12.386552 l 3.88776,-2.454233 -0.73949,4.326154 c -1.52508,8.922078 -0.73387,22.968767 1.94352,34.503917 3.42078,14.73792 3.45127,24.561473 0.10874,35.034145 -2.81823,8.82995 -3.43111,7.59929 6.61762,13.288089 9.1822,5.19823 16.94007,13.34357 21.5054,22.57949 3.7459,7.57818 3.86268,8.1335 3.86268,18.36747 0,11.32085 -1.11386,15.96433 -6.66929,27.80304 l -2.93287,6.25 h -37.96797 -37.96797 l 0.46176,-2.25 c 2.18343,-10.63906 3.18314,-14.04279 5.69938,-19.40483 5.31654,-11.32936 13.99827,-17.44744 28.10265,-19.80415 5.11578,-0.8548 11.68779,-6.13196 14.54081,-11.67592 2.59701,-5.04648 3.28616,-12.78884 1.88768,-21.20735 l -0.80439,-4.842259 -3.45065,4.031309 c -1.89786,2.21722 -6.02656,5.29623 -9.17489,6.84225 -5.12064,2.51454 -6.78299,2.81095 -15.76463,2.81095 -9.77172,0 -10.14633,0.0847 -14,3.16515 -2.17779,1.74083 -5.74189,5.00686 -7.92023,7.25784 l -3.960614,4.0927 -5.03939,-4.88857 c -2.77167,-2.68871 -6.96452,-6.25248 -9.31745,-7.91949 -3.88439,-2.752 -4.62057,-2.93633 -8,-2.00309 -5.02112,1.3866 -14.30604,0.29349 -19.48424,-2.29387 -2.33074,-1.16458 -6.32744,-4.14445 -8.88157,-6.62193 l -4.64388,-4.504499 -0.75624,4.357879 c -1.15801,6.67311 -0.76989,16.17195 0.81538,19.95552 0.78404,1.8713 2.61592,4.81398 4.07083,6.5393 2.73883,3.24785 10.26462,7.36306 13.46538,7.36306 5.10659,0 12.36208,3.30238 17.42825,7.93258 7.67432,7.0139 11.98253,15.89134 14.22769,29.31742 l 0.62708,3.75 h -37.88629 -37.88629 z m 91.271724,-67.61778 c -2.23323,-2.3375 -4.74955,-5.287859 -5.59183,-6.556349 l -1.531414,-2.30634 -2.15473,3.48642 c -1.1851,1.91753 -3.72813,4.867879 -5.65118,6.556339 l -3.49645,3.06993 h 11.243 11.243014 z M 75.802296,91.691461 c 6.75674,-3.49405 6.75674,-14.655946 0,-18.149994 -6.1132,-3.161254 -13.00617,-0.396323 -14.67856,5.887909 -2.49451,9.373455 6.20732,16.642725 14.67856,12.262085 z m 56.999994,0 c 3.01498,-1.55911 5.14503,-5.31617 5.14503,-9.075 0,-11.755964 -16.82339,-14.460703 -19.82358,-3.187085 -2.49451,9.373455 6.20731,16.642725 14.67855,12.262085 z"
     style="fill:#6538b5" />
  <path
     style="fill:#1eb980;fill-opacity:1;stroke-width:0.21800677"
     d="m 122.59397,97.220808 c -4.30967,-0.7954 -8.12408,-4.06063 -9.82293,-8.408705 -0.58252,-1.490866 -0.71697,-2.163897 -0.88552,-4.432358 -0.22492,-3.021934 -0.007,-4.727279 0.89282,-7.000704 1.54442,-3.901864 4.44125,-6.701603 8.36034,-8.080129 2.11254,-0.743073 5.33634,-0.770534 7.49974,-0.06389 4.26074,1.391704 7.44369,4.646503 8.82134,9.020437 0.6048,1.920161 0.84007,5.429451 0.50092,7.470705 -0.28359,1.706542 -1.05641,3.924373 -1.76613,5.068269 -1.35785,2.188595 -3.99303,4.512204 -6.25277,5.513475 -1.83246,0.81194 -5.45569,1.26209 -7.34777,0.91289 z"
     id="path4549"
     inkscape:connector-curvature="0" />
  <path
     style="fill:#1eb980;fill-opacity:1;stroke-width:0.21800677"
     d="m 70.842728,97.220808 c -4.30967,-0.7954 -8.12408,-4.06063 -9.82293,-8.408705 -0.58252,-1.490866 -0.71697,-2.163897 -0.88552,-4.432358 -0.22492,-3.021934 -0.007,-4.727279 0.89282,-7.000704 1.54442,-3.901864 4.44125,-6.701603 8.36034,-8.080129 2.11254,-0.743073 5.33634,-0.770534 7.49974,-0.06389 4.26074,1.391704 7.44369,4.646503 8.82134,9.020437 0.6048,1.920161 0.84007,5.429451 0.50092,7.470705 -0.28359,1.706542 -1.05641,3.924373 -1.76613,5.068269 -1.35785,2.188595 -3.99303,4.512204 -6.25277,5.513475 -1.83246,0.81194 -5.45569,1.26209 -7.34777,0.91289 z"
     id="path4549-4"
     inkscape:connector-curvature="0" />
  <path
     style="fill:#9575cd;fill-opacity:1;stroke-width:0.15637216"
     d="m 18.292764,176.92996 c -0.287767,-0.3541 -4.20938,-8.59622 -5.107047,-10.73356 -2.220236,-5.28637 -3.8086271,-11.10436 -4.5726592,-16.74884 -0.4002276,-2.95679 -0.3998886,-10.0464 6.095e-4,-12.74434 0.7455973,-5.02268 2.2857207,-9.75305 4.4274137,-13.59846 5.362108,-9.62768 14.704767,-18.25986 25.767652,-23.808101 3.222394,-1.616093 4.624386,-2.7099 4.623898,-3.607477 -1.26e-4,-0.23352 -0.601695,-2.148584 -1.336818,-4.255699 -3.760394,-10.778577 -4.164011,-12.862119 -3.837068,-19.807581 0.338118,-7.182865 1.272598,-13.659686 2.917888,-20.223694 1.221887,-4.874807 2.051717,-10.300733 2.424065,-15.849987 0.225398,-3.359189 0.09706,-10.595674 -0.226414,-12.766119 -0.877789,-5.889878 -1.04152,-7.083378 -0.980158,-7.14474 0.105533,-0.105533 1.301034,0.531455 5.373126,2.862914 6.147249,3.519581 10.680785,5.695052 17.557714,8.42528 10.266416,4.075897 18.204893,6.157027 26.661454,6.989497 3.101736,0.305337 11.43624,0.256889 14.6208,-0.08499 8.32318,-0.893533 15.02403,-2.548605 24.1595,-5.967265 8.49743,-3.179896 15.95033,-6.840708 22.83033,-11.21411 1.29007,-0.820057 2.36604,-1.473206 2.39103,-1.451443 0.025,0.02176 -0.13904,1.121543 -0.36451,2.443955 -0.71029,4.165761 -0.86613,5.876817 -0.95957,10.535739 -0.18158,9.05328 0.61191,16.478699 2.84343,26.608508 1.64072,7.447965 2.29738,12.612361 2.30321,18.113931 0.007,6.32641 -0.66781,10.411004 -2.83821,17.187143 -1.26915,3.962396 -1.51206,5.118149 -1.26817,6.034124 0.29604,1.111845 1.52725,2.17624 4.43153,3.831118 8.46233,4.821897 11.18398,6.787307 15.61984,11.279737 4.35923,4.41482 7.19905,8.42587 10.10444,14.2719 3.20943,6.45777 3.31936,6.95236 3.4223,15.39823 0.17196,14.10892 -0.67462,17.55264 -8.23129,33.48329 l -1.26099,2.65832 -37.93123,0.0394 c -36.08061,0.0375 -37.92703,0.026 -37.84486,-0.23456 0.0475,-0.15068 0.29367,-1.29429 0.54703,-2.54136 2.06298,-10.15452 3.37825,-14.40874 6.18341,-20.00003 4.37924,-8.72877 11.24273,-14.31878 21.0449,-17.14015 1.02045,-0.29371 3.24847,-0.8235 4.95116,-1.17731 1.71352,-0.35606 3.58593,-0.84719 4.19351,-1.09995 4.24878,-1.7676 8.62232,-5.59225 11.21503,-9.80753 1.35901,-2.20949 2.34037,-5.1873 2.88681,-8.75963 0.3157,-2.06385 0.35671,-8.13216 0.0705,-10.42822 -0.28366,-2.27546 -1.11254,-7.461697 -1.24196,-7.770923 -0.0868,-0.207328 -0.5026,0.196183 -1.90922,1.85271 -0.98906,1.164773 -2.32604,2.621403 -2.97108,3.236953 -3.53211,3.37067 -8.94286,6.5195 -13.05223,7.59585 -1.95315,0.51157 -4.05438,0.65531 -11.57638,0.79188 -7.83096,0.14217 -8.29685,0.19255 -10.07339,1.08935 -1.9305,0.97451 -5.44677,4.01464 -10.88048,9.40712 l -3.909306,3.87964 -3.469387,-3.33425 c -6.288077,-6.04315 -11.219756,-10.04227 -14.014489,-11.3644 -1.241702,-0.58743 -2.432,-0.60455 -4.704174,-0.0677 -4.721235,1.11556 -11.151468,0.6848 -16.748619,-1.12198 -3.929293,-1.26839 -7.855207,-4.02272 -13.424641,-9.41843 -1.619541,-1.569031 -2.971434,-2.825961 -3.00421,-2.793187 -0.189498,0.189499 -1.170816,7.026107 -1.330363,9.268317 -0.334611,4.70253 0.02823,10.29469 0.876052,13.50169 0.702419,2.657 3.101298,6.66847 5.302552,8.86708 2.162416,2.15981 6.590199,4.85685 9.860516,6.00622 1.013295,0.35613 1.888971,0.53637 3.127443,0.64371 2.398261,0.20786 3.319164,0.39177 5.473026,1.09303 3.423232,1.11454 7.378754,3.29508 10.40618,5.73656 1.641338,1.32366 4.86296,4.68654 6.222394,6.49522 3.946482,5.25066 6.649168,11.48059 8.392427,19.3453 0.343281,1.54872 1.484081,7.82835 1.484081,8.16926 0,0.0652 -16.985129,0.11847 -37.744732,0.11847 -30.006817,0 -37.777294,-0.0401 -37.903576,-0.19547 z m 92.041326,-69.84072 c -0.0287,-0.0758 -1.43729,-1.60629 -3.13028,-3.40109 -3.57817,-3.793352 -5.57179,-6.140225 -6.88999,-8.110805 -0.517788,-0.774042 -0.991989,-1.463773 -1.053781,-1.532737 -0.06179,-0.06896 -0.726946,0.867982 -1.478116,2.082097 -2.214654,3.579539 -4.595406,6.299405 -8.279171,9.458455 -0.90261,0.77405 -1.645403,1.46013 -1.650651,1.52463 -0.0053,0.0645 5.062779,0.11728 11.262283,0.11728 6.438646,0 11.249476,-0.0591 11.219706,-0.13783 z M 76.386786,96.915705 c 0.708707,-0.174068 1.772264,-0.560077 2.363461,-0.857799 2.045293,-1.029993 4.574689,-3.350181 5.738014,-5.263418 0.62301,-1.024619 1.548253,-3.698164 1.781163,-5.146776 0.47686,-2.965887 -0.08523,-6.922655 -1.33931,-9.42791 -2.584315,-5.162642 -7.667447,-8.061838 -13.07661,-7.458329 -0.795544,0.08876 -1.692729,0.239142 -1.993745,0.33418 -5.624183,1.775694 -9.532401,6.814404 -9.80621,12.642755 -0.230572,4.908039 0.930127,8.504984 3.695411,11.45188 1.86395,1.986367 3.848728,3.224829 6.247029,3.898022 1.355458,0.380471 4.482878,0.296005 6.390797,-0.172605 z m 51.798024,-0.0093 c 3.27551,-0.803861 6.84703,-3.693469 8.40732,-6.80211 1.27433,-2.538932 1.76934,-5.378086 1.47897,-8.482869 -0.22384,-2.393508 -0.48748,-3.448022 -1.29385,-5.175226 -2.45511,-5.258741 -7.60844,-8.266902 -13.17354,-7.689831 -6.5429,0.678464 -11.83621,6.798694 -11.83621,13.685259 0,4.760078 1.10756,7.942616 3.74065,10.748633 1.86395,1.986367 3.84873,3.224829 6.24703,3.898022 1.36885,0.38423 4.48168,0.296175 6.42963,-0.181881 z"
     id="path4591"
     inkscape:connector-curvature="0" />
</svg>
